<svg width="67" height="52" viewBox="0 0 67 52" fill="none" xmlns="http://www.w3.org/2000/svg">
<path d="M51.1705 25.6895H54.1805V49.7697H51.1705V25.6895ZM12.04 25.6895H15.0501V49.7697H12.04V25.6895Z" fill="#CFD8DC"/>
<path d="M1.50488 36.2246H25.5852V39.2346H1.50488V36.2246Z" fill="#CFD8DC"/>
<path d="M6.02011 47.3618L3.91309 45.2547L20.9198 28.248L23.0268 30.3551L6.02011 47.3618Z" fill="#CFD8DC"/>
<path d="M23.1773 45.1042L21.0703 47.2113L3.91309 30.3551L6.02011 28.248L23.1773 45.1042ZM40.6355 36.2246H64.7158V39.2347H40.6355V36.2246Z" fill="#CFD8DC"/>
<path d="M45.3014 47.3618L43.1943 45.2547L60.201 28.248L62.3081 30.3551L45.3014 47.3618Z" fill="#CFD8DC"/>
<path d="M62.3072 45.1042L60.2002 47.2113L43.043 30.3551L45.15 28.248L62.3072 45.1042Z" fill="#CFD8DC"/>
<path d="M13.5452 51.2739C6.02007 51.2739 0 45.2538 0 37.7288C0 30.2037 6.02007 24.1836 13.5452 24.1836C21.0702 24.1836 27.0903 30.2037 27.0903 37.7288C27.0903 45.2538 21.0702 51.2739 13.5452 51.2739ZM13.5452 27.1936C7.67559 27.1936 3.01004 31.8592 3.01004 37.7288C3.01004 43.5983 7.67559 48.2639 13.5452 48.2639C19.4147 48.2639 24.0803 43.5983 24.0803 37.7288C24.0803 31.8592 19.4147 27.1936 13.5452 27.1936ZM52.6756 51.2739C45.1505 51.2739 39.1305 45.2538 39.1305 37.7288C39.1305 30.2037 45.1505 24.1836 52.6756 24.1836C60.2007 24.1836 66.2208 30.2037 66.2208 37.7288C66.2208 45.2538 60.2007 51.2739 52.6756 51.2739ZM52.6756 27.1936C46.806 27.1936 42.1405 31.8592 42.1405 37.7288C42.1405 43.5983 46.806 48.2639 52.6756 48.2639C58.5452 48.2639 63.2107 43.5983 63.2107 37.7288C63.2107 31.8592 58.5452 27.1936 52.6756 27.1936Z" fill="#607D8B"/>
<path d="M52.6768 39.2339C52.0748 39.2339 51.6233 38.9329 51.3223 38.4814C42.2922 21.9262 39.2821 5.67203 39.1316 4.91953C38.9811 4.46802 39.1316 4.01652 39.5831 3.56501C39.8841 3.26401 40.3356 3.11351 40.7872 3.11351C40.7872 3.11351 46.3557 3.86601 48.3122 0.705477C48.7637 -0.0470316 49.6668 -0.197534 50.4193 0.253972C51.1718 0.705477 51.3223 1.60849 50.8708 2.361C48.7637 5.52153 44.8507 6.12354 42.4427 6.12354C43.4962 10.9396 46.8072 24.0332 53.8808 36.9764C54.3323 37.7289 54.0313 38.6319 53.2788 39.0834C53.1283 39.2339 52.9778 39.2339 52.6768 39.2339Z" fill="#4CAF50"/>
<path d="M31.6054 39.2345H13.5452C13.0937 39.2345 12.6422 38.9335 12.3412 38.6325C12.0402 38.181 12.0402 37.7294 12.1907 37.2779L21.2208 16.2077C21.5218 15.6057 21.9733 15.3047 22.5753 15.3047H43.6455C44.5485 15.3047 45.1505 15.9067 45.1505 16.8097V18.3147C45.1505 18.6157 45 18.9167 45 19.0672L32.9599 38.6325C32.6589 38.9335 32.0569 39.2345 31.6054 39.2345ZM15.8027 36.2244H30.7024L41.8395 18.1642H23.6288L15.8027 36.2244Z" fill="#4CAF50"/>
<path d="M31.605 39.2336C31.003 39.2336 30.401 38.9326 30.2505 38.3306L19.7154 11.2403C19.4144 10.4877 19.8659 9.58474 20.6184 9.28374C21.3709 8.98273 22.2739 9.43424 22.5749 10.1867L33.11 37.2771C33.411 38.0296 32.9595 38.9326 32.207 39.2336C31.906 39.2336 31.7555 39.2336 31.605 39.2336Z" fill="#4CAF50"/>
<path d="M50.5687 0.404362C49.8162 -0.047143 48.9132 0.103359 48.4617 0.855868C47.5586 2.05988 46.2041 2.66189 44.8496 2.96289L45.6021 5.82243C47.5586 5.37092 49.6657 4.46791 51.0202 2.36089C51.3212 1.75888 51.1707 0.855868 50.5687 0.404362Z" fill="#455A64"/>
<path d="M36.1205 39.2338C36.1205 41.7923 34.1639 43.7489 31.6054 43.7489C29.0469 43.7489 27.0903 41.7923 27.0903 39.2338C27.0903 36.6753 29.0469 34.7188 31.6054 34.7188C34.1639 34.7188 36.1205 36.6753 36.1205 39.2338ZM16.5552 37.7288C16.5552 39.3843 15.2007 40.7388 13.5452 40.7388C11.8897 40.7388 10.5352 39.3843 10.5352 37.7288C10.5352 36.0733 11.8897 34.7188 13.5452 34.7188C15.2007 34.7188 16.5552 36.0733 16.5552 37.7288Z" fill="#317534"/>
<path d="M31.6061 34.7188H13.5459V40.7388L31.6061 43.7489V34.7188Z" fill="#317534"/>
<path d="M27.0909 9.13308C22.5759 9.13308 19.5658 12.1431 17.3083 12.1431C15.0508 12.1431 15.0508 9.88559 15.0508 9.88559V8.38057C15.0508 7.17656 16.1043 6.12305 17.3083 6.12305H27.0909C27.0909 6.12305 28.5959 6.12305 28.5959 7.62806C28.5959 7.62806 28.5959 9.13308 27.0909 9.13308Z" fill="#317534"/>
</svg>
