<svg width="51" height="52" viewBox="0 0 51 52" fill="none" xmlns="http://www.w3.org/2000/svg">
<path d="M39.5839 30.7266H11.041L4.63086 50.8173H45.9941L39.5839 30.7266Z" fill="#FF5634"/>
<path d="M27.9538 14.1817L26.0157 0.609812C25.8998 -0.203271 24.7263 -0.203271 24.6093 0.609812L22.6711 14.1817H27.9538Z" fill="#929292"/>
<path d="M35.7398 16.8835L41.7788 4.57618C42.1405 3.83873 41.1702 3.1781 40.6171 3.78437L31.373 13.9089L35.7398 16.8835Z" fill="#929292"/>
<path d="M37.9048 24.4056L49.2194 16.6636C49.8966 16.2003 49.3778 15.1473 48.5978 15.4026L35.5684 19.6666L37.9048 24.4056Z" fill="#929292"/>
<path d="M36.3086 31.7119L49.9726 30.5939C50.7916 30.5265 50.8613 29.3554 50.0577 29.1911L36.6277 26.4375L36.3086 31.7119Z" fill="#929292"/>
<path d="M19.2521 13.9089L10.008 3.78437C9.45494 3.1781 8.48468 3.83873 8.84631 4.57618L14.8853 16.8835L19.2521 13.9089Z" fill="#929292"/>
<path d="M15.0567 19.6678L2.02731 15.4026C1.24732 15.1473 0.727324 16.2003 1.40568 16.6636L12.7203 24.4056L15.0567 19.6678Z" fill="#929292"/>
<path d="M13.9978 26.4375L0.567784 29.1911C-0.237026 29.3566 -0.166118 30.5277 0.652874 30.5939L14.3169 31.7119L13.9978 26.4375Z" fill="#929292"/>
<path d="M32.5007 43.7266H25.3117H18.1228C18.1228 43.7266 6.99374 43.7266 2.85742 51.9992H25.3117H47.766C43.6297 43.7266 32.5007 43.7266 32.5007 43.7266Z" fill="#CACACA"/>
<path d="M25.3124 10.6367C16.703 10.6367 11.1307 14.864 11.1307 23.8056C11.1307 39.6264 25.3124 41.3637 25.3124 41.3637C25.3124 41.3637 39.4941 39.6264 39.4941 23.8056C39.4941 14.864 33.9219 10.6367 25.3124 10.6367Z" fill="#CACACA"/>
<path d="M25.3122 15.3633C15.5694 15.3633 13.4941 21.4437 13.4941 27.1742C13.4941 34.9919 17.7238 38.9994 17.7238 38.9994H32.8994C32.8994 38.9994 37.1291 34.9919 37.1291 27.1742C37.1303 21.4437 35.055 15.3633 25.3122 15.3633Z" fill="#929292"/>
<path d="M32.4033 37.5469H18.2217V45.3811C18.2217 45.3811 18.2217 49.6356 25.3125 49.6356C32.4033 49.6356 32.4033 45.3811 32.4033 45.3811V37.5469Z" fill="#929292"/>
<path d="M34.7663 28.6561C34.7663 21.4873 30.5272 18.9062 25.3119 18.9062C20.0966 18.9062 15.8574 21.4873 15.8574 28.6561C15.8574 29.2151 15.8574 31.3471 15.8574 31.9061C15.8574 39.0726 20.0966 44.906 25.3119 44.906C30.5272 44.906 34.7663 39.0726 34.7663 31.9061C34.7663 31.3471 34.7663 29.2151 34.7663 28.6561Z" fill="#CACACA"/>
</svg>
