<svg width="50" height="46" viewBox="0 0 50 46" fill="none" xmlns="http://www.w3.org/2000/svg">
<path d="M2.96094 38.6084C15.7273 34.6333 18.6596 11.9308 18.6596 11.9308L19.924 11.9297C19.924 11.9297 20.3601 29.3289 13.4004 38.6084H2.96094Z" fill="#E8AD8C"/>
<path d="M19.2002 12.1287L30.7997 0.529222C30.171 0.399308 29.5191 0.332031 28.8521 0.332031C23.521 0.332031 19.2002 4.65283 19.2002 9.98394V12.1287Z" fill="#4CAF50"/>
<path d="M19.1992 11.9328H37.727C35.6101 9.11988 32.2544 7.29297 28.4637 7.29297C24.673 7.29297 21.3161 9.11988 19.1992 11.9328Z" fill="#4CAF50"/>
<path d="M21.1692 11.9297H19.0117L31.7711 24.6891C31.8894 24.05 31.959 23.3934 31.959 22.7195C31.959 16.7597 27.1279 11.9297 21.1692 11.9297Z" fill="#4CAF50"/>
<path d="M19.2 12.1287L7.60059 0.529222C8.22928 0.399308 8.88117 0.332031 9.54813 0.332031C14.8792 0.332031 19.2 4.65283 19.2 9.98394V12.1287Z" fill="#4CAF50"/>
<path d="M19.1997 11.9328H0.671875C2.78878 9.11988 6.1445 7.29297 9.9352 7.29297C13.7259 7.29297 17.0828 9.11988 19.1997 11.9328Z" fill="#4CAF50"/>
<path d="M17.2302 11.9297H19.3877L6.62834 24.6891C6.51003 24.05 6.44043 23.3934 6.44043 22.7195C6.44043 16.7597 11.2716 11.9297 17.2302 11.9297Z" fill="#4CAF50"/>
<path d="M23.0264 37.0929L38.9188 45.5686H2.96052C1.67878 45.5686 0.640625 44.5305 0.640625 43.2487V36.2891H19.811C20.9327 36.2891 22.037 36.5651 23.0264 37.0929Z" fill="#FDB52A"/>
<path d="M45.8783 37.449C43.9563 37.449 42.3985 36.2891 42.3985 36.2891C42.3985 36.2891 40.8407 37.449 38.9186 37.449C36.9966 37.449 35.4388 36.2891 35.4388 36.2891C35.4388 36.2891 33.881 37.449 31.959 37.449C30.0369 37.449 28.4791 36.2891 28.4791 36.2891C28.4791 36.2891 26.9213 37.449 24.9993 37.449C24.1804 37.449 23.4368 37.2367 22.8418 36.9943L38.9186 45.5686H47.0383C48.32 45.5686 49.3582 44.5305 49.3582 43.2487V36.2891C49.3582 36.2891 47.8004 37.449 45.8783 37.449Z" fill="#2AA4F4"/>
</svg>
