<svg width="46" height="38" viewBox="0 0 46 38" fill="none" xmlns="http://www.w3.org/2000/svg">
<path d="M24.0781 2.23828H21.9219V9.7852H24.0781V2.23828Z" fill="#E13F1F"/>
<path d="M30.5469 2.23828H28.3906V9.7852H30.5469V2.23828Z" fill="#E13F1F"/>
<path d="M43.4844 2.23828H41.3281V9.7852H43.4844V2.23828Z" fill="#E13F1F"/>
<path d="M4.67189 2.23828H2.51562V9.7852H4.67189V2.23828Z" fill="#E13F1F"/>
<path d="M11.1406 2.23828H8.98438V9.7852H11.1406V2.23828Z" fill="#E13F1F"/>
<path d="M17.6094 2.23828H15.4531V9.7852H17.6094V2.23828Z" fill="#E13F1F"/>
<path d="M37.0156 2.23828H34.8594V9.7852H37.0156V2.23828Z" fill="#E13F1F"/>
<path d="M45.6409 9.78516H0.359375V14.0977C3.9323 14.0977 6.82816 16.9935 6.82816 20.5665V30.2696H13.2969V23.8009C13.2969 18.4415 17.6407 14.0977 23.0001 14.0977C28.3595 14.0977 32.7033 18.4415 32.7033 23.8009V30.2696H39.1721V20.5665C39.1721 16.9935 42.068 14.0977 45.6409 14.0977V9.78516Z" fill="#E13F1F"/>
<path d="M42.4065 28.1133C40.62 28.1133 39.1721 27.0352 39.1721 27.0352C39.1721 27.0352 37.7242 28.1133 35.9377 28.1133C34.1512 28.1133 32.7033 27.0352 32.7033 27.0352C32.7033 27.0352 31.2554 28.1133 29.4689 28.1133C27.6824 28.1133 26.2345 27.0352 26.2345 27.0352C26.2345 27.0352 24.7866 28.1133 23.0001 28.1133C21.2137 28.1133 19.7657 27.0352 19.7657 27.0352C19.7657 27.0352 18.3178 28.1133 16.5313 28.1133C14.7449 28.1133 13.2969 27.0352 13.2969 27.0352C13.2969 27.0352 11.849 28.1133 10.0626 28.1133C8.27609 28.1133 6.82816 27.0352 6.82816 27.0352C6.82816 27.0352 5.38023 28.1133 3.59377 28.1133C1.8073 28.1133 0.359375 27.0352 0.359375 27.0352V35.6602C0.359375 36.8515 1.3243 37.8165 2.51564 37.8165H26.2345H35.9377H43.4846C44.6759 37.8165 45.6409 36.8515 45.6409 35.6602V27.0352C45.6409 27.0352 44.1929 28.1133 42.4065 28.1133Z" fill="#2AA4F4"/>
<path d="M45.6409 0.0820312H0.359375V2.23829H45.6409V0.0820312Z" fill="#FF5634"/>
</svg>
