<svg width="32" height="24" viewBox="0 0 32 24" fill="none" xmlns="http://www.w3.org/2000/svg">
<mask id="mask0_1_287" style="mask-type:luminance" maskUnits="userSpaceOnUse" x="0" y="0" width="32" height="24">
<path d="M0 0H32V24H0V0Z" fill="white"/>
</mask>
<g mask="url(#mask0_1_287)">
<path d="M0 0H32V24H0V0Z" fill="white"/>
<path fill-rule="evenodd" clip-rule="evenodd" d="M0 0V24H32V0H0Z" fill="#2E42A5"/>
<mask id="mask1_1_287" style="mask-type:luminance" maskUnits="userSpaceOnUse" x="0" y="0" width="32" height="24">
<path fill-rule="evenodd" clip-rule="evenodd" d="M0 0V24H32V0H0Z" fill="white"/>
</mask>
<g mask="url(#mask1_1_287)">
<path d="M-3.56342 22.2844L3.47858 25.2634L32.1586 3.23741L35.8736 -1.18859L28.3436 -2.18359L16.6456 7.30741L7.22958 13.7034L-3.56342 22.2844Z" fill="white"/>
<path d="M-2.6004 24.3714L0.988597 26.0994L34.5396 -1.59959H29.5026L-2.5994 24.3704L-2.6004 24.3714Z" fill="#F50100"/>
<path d="M35.563 22.2844L28.521 25.2634L-0.159023 3.23741L-3.87402 -1.18859L3.65598 -2.18359L15.354 7.30741L24.77 13.7034L35.563 22.2844Z" fill="white"/>
<path d="M35.3226 23.7824L31.7346 25.5104L17.4486 13.6504L13.2126 12.3264L-4.23242 -1.1736H0.805578L18.2396 12.0064L22.8706 13.5944L35.3226 23.7824Z" fill="#F50100"/>
<path fill-rule="evenodd" clip-rule="evenodd" d="M19.7773 -2H12.2213V8H-1.97266V16H12.2213V26H19.7773V16H34.0273V8H19.7773V-2Z" fill="#F50100"/>
<mask id="mask2_1_287" style="mask-type:luminance" maskUnits="userSpaceOnUse" x="-2" y="-2" width="37" height="28">
<path fill-rule="evenodd" clip-rule="evenodd" d="M19.7773 -2H12.2213V8H-1.97266V16H12.2213V26H19.7773V16H34.0273V8H19.7773V-2Z" fill="white"/>
</mask>
<g mask="url(#mask2_1_287)">
<path d="M12.2213 -2V-4H10.2213V-2H12.2213ZM19.7773 -2H21.7773V-4H19.7773V-2ZM12.2213 8V10H14.2213V8H12.2213ZM-1.97266 8V6H-3.97266V8H-1.97266ZM-1.97266 16H-3.97266V18H-1.97266V16ZM12.2213 16H14.2213V14H12.2213V16ZM12.2213 26H10.2213V28H12.2213V26ZM19.7773 26V28H21.7773V26H19.7773ZM19.7773 16V14H17.7773V16H19.7773ZM34.0273 16V18H36.0273V16H34.0273ZM34.0273 8H36.0273V6H34.0273V8ZM19.7773 8H17.7773V10H19.7773V8ZM12.2213 0H19.7773V-4H12.2213V0ZM14.2213 8V-2H10.2213V8H14.2213ZM-1.97266 10H12.2213V6H-1.97266V10ZM0.0273438 16V8H-3.97266V16H0.0273438ZM12.2213 14H-1.97266V18H12.2213V14ZM14.2213 26V16H10.2213V26H14.2213ZM19.7773 24H12.2213V28H19.7773V24ZM17.7773 16V26H21.7773V16H17.7773ZM34.0273 14H19.7773V18H34.0273V14ZM32.0273 8V16H36.0273V8H32.0273ZM19.7773 10H34.0273V6H19.7773V10ZM17.7773 -2V8H21.7773V-2H17.7773Z" fill="white"/>
</g>
</g>
</g>
</svg>
