<svg width="46" height="86" viewBox="0 0 46 86" fill="none" xmlns="http://www.w3.org/2000/svg">
<path d="M31.2031 85.4374H14.7969L18.8984 36.2188H27.1015L31.2031 85.4374Z" fill="#929292"/>
<path d="M21.3594 85.4374H14.7969L18.8984 36.2188H21.3594V85.4374Z" fill="#CACACA"/>
<path d="M23.5469 16.5312C23.3314 16.5313 23.118 16.512 22.9189 16.4746C22.7198 16.4371 22.5389 16.3822 22.3865 16.3129C22.2341 16.2437 22.1133 16.1614 22.0309 16.0709C21.9485 15.9804 21.9061 15.8834 21.9063 15.7855V0.870737C21.9063 0.672955 22.0791 0.483274 22.3868 0.343421C22.6945 0.203569 23.1118 0.125 23.5469 0.125C23.982 0.125 24.3993 0.203569 24.707 0.343421C25.0146 0.483274 25.1875 0.672955 25.1875 0.870737V15.7855C25.1876 15.8834 25.1453 15.9804 25.0629 16.0709C24.9805 16.1614 24.8596 16.2437 24.7072 16.3129C24.5549 16.3822 24.374 16.4371 24.1749 16.4746C23.9758 16.512 23.7624 16.5313 23.5469 16.5312Z" fill="#1D88FE"/>
<path d="M17.3486 13.25H28.6507C29.5209 13.25 30.3555 13.5957 30.9709 14.2111C31.5862 14.8264 31.9319 15.661 31.9319 16.5312V23.0937H14.0674V16.5312C14.0674 15.661 14.4131 14.8264 15.0284 14.2111C15.6438 13.5957 16.4784 13.25 17.3486 13.25Z" fill="#8FC3FF"/>
<path d="M36.125 23.0939H9.87499C8.06281 23.0939 6.59375 24.5629 6.59375 26.3751C6.59375 28.1873 8.06281 29.6564 9.87499 29.6564H36.1249C37.9371 29.6564 39.4062 28.1873 39.4062 26.3751C39.4062 24.5629 37.9371 23.0939 36.125 23.0939Z" fill="#1D88FE"/>
<path d="M43.7812 29.6562H2.21875C1.01063 29.6562 0.03125 30.6356 0.03125 31.8437C0.03125 33.0519 1.01063 34.0312 2.21875 34.0312H43.7812C44.9893 34.0312 45.9687 33.0519 45.9687 31.8437C45.9687 30.6356 44.9893 29.6562 43.7812 29.6562Z" fill="#8FC3FF"/>
<path d="M36.125 34.0312H9.87499C8.06281 34.0312 6.59375 35.5003 6.59375 37.3125C6.59375 39.1247 8.06281 40.5937 9.87499 40.5937H36.1249C37.9371 40.5937 39.4062 39.1247 39.4062 37.3125C39.4062 35.5003 37.9371 34.0312 36.125 34.0312Z" fill="#1D88FE"/>
</svg>
