<svg width="21" height="25" viewBox="0 0 21 25" fill="none" xmlns="http://www.w3.org/2000/svg">
<path d="M11.2124 2.39066C12.8086 0.286868 15.0276 0.276611 15.0276 0.276611C15.0276 0.276611 15.3577 2.25454 13.772 4.15991C12.0788 6.19443 10.1544 5.86151 10.1544 5.86151C10.1544 5.86151 9.79299 4.26144 11.2124 2.39066ZM10.3574 7.24705C11.1785 7.24705 12.7025 6.11828 14.6862 6.11828C18.1009 6.11828 19.4442 8.54801 19.4442 8.54801C19.4442 8.54801 16.8169 9.89128 16.8169 13.1507C16.8169 16.8275 20.0898 18.0947 20.0898 18.0947C20.0898 18.0947 17.8019 24.5341 14.7117 24.5341C13.2923 24.5341 12.1889 23.5777 10.6934 23.5777C9.16938 23.5777 7.65703 24.5698 6.67201 24.5698C3.85015 24.5699 0.285156 18.4614 0.285156 13.5512C0.285156 8.72021 3.30269 6.18597 6.13302 6.18597C7.97298 6.18597 9.40081 7.24705 10.3574 7.24705Z" fill="white"/>
</svg>
