<svg width="30" height="18" viewBox="0 0 30 18" fill="none" xmlns="http://www.w3.org/2000/svg">
<path d="M21.6382 12.9768C20.965 12.9768 20.4174 12.4288 20.4174 11.7556C20.4174 11.0823 20.965 10.5347 21.6382 10.5347C22.3116 10.5347 22.8592 11.0822 22.8592 11.7556C22.8592 12.4289 22.3116 12.9768 21.6382 12.9768ZM8.14349 12.9768C7.47028 12.9768 6.92267 12.4288 6.92267 11.7556C6.92267 11.0823 7.47017 10.5347 8.14349 10.5347C8.81669 10.5347 9.36431 11.0822 9.36431 11.7556C9.36431 12.4289 8.81681 12.9768 8.14349 12.9768ZM22.0761 5.62239L24.5162 1.39633C24.5834 1.2797 24.6015 1.14119 24.5667 1.01119C24.5319 0.881188 24.4469 0.770315 24.3304 0.702899C24.2138 0.635762 24.0753 0.617621 23.9453 0.652455C23.8153 0.687288 23.7044 0.772252 23.637 0.888714L21.1664 5.16818C19.2769 4.30603 17.1551 3.82568 14.8909 3.82568C12.6267 3.82568 10.5048 4.30603 8.61546 5.16818L6.14476 0.888714C6.07733 0.772252 5.96645 0.687288 5.83646 0.652455C5.70647 0.617621 5.56797 0.635762 5.45133 0.702899C5.33478 0.770252 5.24974 0.881126 5.21489 1.01115C5.18005 1.14118 5.19826 1.27972 5.26552 1.39633L7.7056 5.62239C3.51563 7.90124 0.649945 12.1431 0.230713 17.1545H29.551C29.1314 12.1432 26.2658 7.90124 22.0761 5.62228" fill="white"/>
</svg>
